<?xml version="1.0" encoding="UTF-8"?>
<svg xmlns="http://www.w3.org/2000/svg" viewBox="0 0 1200 630" width="1200" height="630">
  <defs>
    <linearGradient id="g27848" x1="94.55032620941839%" y1="27.300475013022655%" x2="5.449673790581613%" y2="72.69952498697734%">
      <stop offset="0%" stop-color="#D97706"/>
      <stop offset="100%" stop-color="#B45309"/>
    </linearGradient>
  </defs>
  <rect width="1200" height="630" fill="url(#g27848)"/>
  <circle cx="778.1438105273992" cy="304.65110811870545" r="8" fill="rgba(255,255,255,0.2)"/><ellipse cx="778.1438105273992" cy="304.65110811870545" rx="90.75079281814396" ry="41.76523949485272" fill="none" stroke="rgba(255,255,255,0.12)" stroke-width="1.5" transform="rotate(18.380344344768673 778.1438105273992 304.65110811870545)"/><ellipse cx="778.1438105273992" cy="304.65110811870545" rx="106.08407398685813" ry="39.36422345228493" fill="none" stroke="rgba(255,255,255,0.12)" stroke-width="1.5" transform="rotate(85.84222071105614 778.1438105273992 304.65110811870545)"/><ellipse cx="778.1438105273992" cy="304.65110811870545" rx="96.86414456926286" ry="35.43217959348112" fill="none" stroke="rgba(255,255,255,0.12)" stroke-width="1.5" transform="rotate(141.6102569969371 778.1438105273992 304.65110811870545)"/><circle cx="376.53619133356517" cy="80" r="3" fill="rgba(255,255,255,0.15)"/><circle cx="313.93312147828584" cy="80" r="3" fill="rgba(255,255,255,0.10)"/><circle cx="359.17534436385563" cy="105" r="3" fill="rgba(255,255,255,0.15)"/><circle cx="339.79488513455567" cy="105" r="3" fill="rgba(255,255,255,0.10)"/><line x1="359.17534436385563" y1="105" x2="339.79488513455567" y2="105" stroke="rgba(255,255,255,0.08)" stroke-width="1"/><circle cx="326.9419703689684" cy="130" r="3" fill="rgba(255,255,255,0.15)"/><circle cx="355.4693747809205" cy="130" r="3" fill="rgba(255,255,255,0.10)"/><circle cx="302.5079542106156" cy="155" r="3" fill="rgba(255,255,255,0.15)"/><circle cx="380.502910171302" cy="155" r="3" fill="rgba(255,255,255,0.10)"/><line x1="302.5079542106156" y1="155" x2="380.502910171302" y2="155" stroke="rgba(255,255,255,0.08)" stroke-width="1"/><circle cx="300.7539925665185" cy="180" r="3" fill="rgba(255,255,255,0.15)"/><circle cx="380.1159750015987" cy="180" r="3" fill="rgba(255,255,255,0.10)"/><circle cx="311.2238178447938" cy="205" r="3" fill="rgba(255,255,255,0.15)"/><circle cx="368.23181098409873" cy="205" r="3" fill="rgba(255,255,255,0.10)"/><line x1="311.2238178447938" y1="205" x2="368.23181098409873" y2="205" stroke="rgba(255,255,255,0.08)" stroke-width="1"/><circle cx="345.2802945700665" cy="230" r="3" fill="rgba(255,255,255,0.15)"/><circle cx="351.835376414548" cy="230" r="3" fill="rgba(255,255,255,0.10)"/><circle cx="360.01435389573226" cy="255" r="3" fill="rgba(255,255,255,0.15)"/><circle cx="320.40790971746867" cy="255" r="3" fill="rgba(255,255,255,0.10)"/><line x1="360.01435389573226" y1="255" x2="320.40790971746867" y2="255" stroke="rgba(255,255,255,0.08)" stroke-width="1"/><circle cx="376.265030987746" cy="280" r="3" fill="rgba(255,255,255,0.15)"/><circle cx="303.5875025406131" cy="280" r="3" fill="rgba(255,255,255,0.10)"/><circle cx="380.5242617901095" cy="305" r="3" fill="rgba(255,255,255,0.15)"/><circle cx="305.58007486535575" cy="305" r="3" fill="rgba(255,255,255,0.10)"/><line x1="380.5242617901095" y1="305" x2="305.58007486535575" y2="305" stroke="rgba(255,255,255,0.08)" stroke-width="1"/><circle cx="349.0644334404336" cy="330" r="3" fill="rgba(255,255,255,0.15)"/><circle cx="319.112268000966" cy="330" r="3" fill="rgba(255,255,255,0.10)"/><circle cx="351.5521823788614" cy="355" r="3" fill="rgba(255,255,255,0.15)"/><circle cx="349.88237231972386" cy="355" r="3" fill="rgba(255,255,255,0.10)"/><line x1="351.5521823788614" y1="355" x2="349.88237231972386" y2="355" stroke="rgba(255,255,255,0.08)" stroke-width="1"/><circle cx="335.62684967382546" cy="380" r="3" fill="rgba(255,255,255,0.15)"/><circle cx="349.66598310565183" cy="380" r="3" fill="rgba(255,255,255,0.10)"/><circle cx="306.25388609020075" cy="405" r="3" fill="rgba(255,255,255,0.15)"/><circle cx="380.0031368329729" cy="405" r="3" fill="rgba(255,255,255,0.10)"/><line x1="306.25388609020075" y1="405" x2="380.0031368329729" y2="405" stroke="rgba(255,255,255,0.08)" stroke-width="1"/><circle cx="301.2879941530378" cy="430" r="3" fill="rgba(255,255,255,0.15)"/><circle cx="380.5925926296668" cy="430" r="3" fill="rgba(255,255,255,0.10)"/><circle cx="307.911070542896" cy="455" r="3" fill="rgba(255,255,255,0.15)"/><circle cx="375.60669233074736" cy="455" r="3" fill="rgba(255,255,255,0.10)"/><line x1="307.911070542896" y1="455" x2="375.60669233074736" y2="455" stroke="rgba(255,255,255,0.08)" stroke-width="1"/><circle cx="329.66114990233996" cy="480" r="3" fill="rgba(255,255,255,0.15)"/><circle cx="343.8462017452331" cy="480" r="3" fill="rgba(255,255,255,0.10)"/><circle cx="368.5537020183166" cy="505" r="3" fill="rgba(255,255,255,0.15)"/><circle cx="326.3798288143194" cy="505" r="3" fill="rgba(255,255,255,0.10)"/><line x1="368.5537020183166" y1="505" x2="326.3798288143194" y2="505" stroke="rgba(255,255,255,0.08)" stroke-width="1"/><circle cx="366.1574746992349" cy="530" r="3" fill="rgba(255,255,255,0.15)"/><circle cx="311.9844764084733" cy="530" r="3" fill="rgba(255,255,255,0.10)"/><path d="M 981.1417107377201 273.5215271450579 L 981.1417107377201 333.5215271450579 L 951.1417107377201 413.5215271450579 A 5 5 0 0 0 956.1417107377201 423.5215271450579 L 1036.1417107377201 423.5215271450579 A 5 5 0 0 0 1041.1417107377201 413.5215271450579 L 1011.1417107377201 333.5215271450579 L 1011.1417107377201 273.5215271450579 Z" fill="rgba(255,255,255,0.06)" stroke="rgba(255,255,255,0.15)" stroke-width="2"/><polygon points="1069.235723108959,235.73483366635628 1069.235723108959,265.1825009647291 1043.733295146376,279.90633461391553 1018.2308671837927,265.1825009647291 1018.2308671837927,235.73483366635628 1043.733295146376,221.01100001716986" fill="none" stroke="rgba(255,255,255,0.17635518374852838)" stroke-width="1.5"/><polygon points="1065.3373736269664,260.5738575977739 1065.3373736269664,294.93713678442873 1035.5779008939862,312.11877637775615 1005.8184281610061,294.93713678442873 1005.8184281610061,260.5738575977739 1035.5779008939862,243.39221800444648" fill="none" stroke="rgba(255,255,255,0.1018444047961384)" stroke-width="1.5"/><polygon points="1072.450027854083,232.54702459438704 1072.450027854083,259.6157258434687 1049.0078449249268,273.1500764680095 1025.5656619957706,259.6157258434687 1025.5656619957706,232.54702459438704 1049.0078449249268,219.01267396984622" fill="none" stroke="rgba(255,255,255,0.14415495136752726)" stroke-width="1.5"/>
  <circle cx="322.85358253866434" cy="98.31598725635558" r="2.4989194930531085" fill="rgba(255,255,255,0.05914069979451597)"/><circle cx="1091.8877614662051" cy="183.66697216406465" r="1.3470263942144811" fill="rgba(255,255,255,0.0313709241640754)"/><circle cx="945.341291371733" cy="222.22745575709268" r="1.270399269182235" fill="rgba(255,255,255,0.05083909172797575)"/><circle cx="278.06257400661707" cy="393.31665673758835" r="1.1909943409264088" fill="rgba(255,255,255,0.044123788010329006)"/><circle cx="1108.2263245247304" cy="323.63603945821524" r="2.17794466111809" fill="rgba(255,255,255,0.045313158347271384)"/><circle cx="932.3466687463224" cy="495.3376360516995" r="2.2520386641845107" fill="rgba(255,255,255,0.03505332510219887)"/><circle cx="1027.7874084189534" cy="474.9349441914819" r="2.2815282251685858" fill="rgba(255,255,255,0.07688061643391847)"/><circle cx="1003.2243747264147" cy="207.31369543354958" r="2.066886848770082" fill="rgba(255,255,255,0.03435830863425508)"/><circle cx="311.1591646447778" cy="204.8034851043485" r="1.4097994030453265" fill="rgba(255,255,255,0.033645264613442125)"/><circle cx="467.88504933938384" cy="253.34906170377508" r="1.2880083620548248" fill="rgba(255,255,255,0.05497272515902296)"/><circle cx="374.9201975762844" cy="370.2136457967572" r="2.7829329897649586" fill="rgba(255,255,255,0.07046486049192027)"/><circle cx="54.71012005582452" cy="480.406348539982" r="1.983335462398827" fill="rgba(255,255,255,0.07519140521297232)"/><circle cx="951.9805066287518" cy="593.1919009331614" r="2.698667444754392" fill="rgba(255,255,255,0.031661984308157115)"/><circle cx="676.8797907046974" cy="238.66595295723528" r="2.719492213334888" fill="rgba(255,255,255,0.07454137972788885)"/><circle cx="868.7547457404435" cy="39.51524816220626" r="1.9355178214609623" fill="rgba(255,255,255,0.03436691289069131)"/><circle cx="1045.3029024414718" cy="257.92896951315925" r="1.697579249739647" fill="rgba(255,255,255,0.06613077681511641)"/><circle cx="1135.3742231614888" cy="16.470118453726172" r="2.6857059970498085" fill="rgba(255,255,255,0.04033923167269677)"/><circle cx="226.62994042038918" cy="535.8736991020851" r="1.3923451718874276" fill="rgba(255,255,255,0.07038108470849694)"/><circle cx="292.864079028368" cy="597.0454384409823" r="2.4501903960481286" fill="rgba(255,255,255,0.07056059961440042)"/><circle cx="646.1232550442219" cy="600.6381495622918" r="1.7564168479293585" fill="rgba(255,255,255,0.07950660023605452)"/>
  <text x="600" y="335" font-family="system-ui, -apple-system, 'Segoe UI', sans-serif" font-size="68" font-weight="700" fill="rgba(0,0,0,0.15)" text-anchor="middle" letter-spacing="1">GCSE Physics</text>
  <text x="600" y="332" font-family="system-ui, -apple-system, 'Segoe UI', sans-serif" font-size="68" font-weight="700" fill="white" text-anchor="middle" letter-spacing="1">GCSE Physics</text>
  <g transform="translate(1140, 575)">
    <rect x="0" y="0" width="40" height="40" rx="8" fill="rgba(255,255,255,0.15)"/>
    <text x="20" y="29" font-family="sans-serif" font-weight="bold" font-size="24" fill="rgba(255,255,255,0.6)" text-anchor="middle">K</text>
  </g>
</svg>